<?xml version="1.0" encoding="utf-8" standalone="no"?><!DOCTYPE svg PUBLIC "-//W3C//DTD SVG 20010904//EN" "http://www.w3.org/TR/2001/REC-SVG-20010904/DTD/svg10.dtd"><svg xmlns="http://www.w3.org/2000/svg" width="399" height="404" xmlns:xlink="http://www.w3.org/1999/xlink"><source><![CDATA[Client->Server: 1. Send session register request
Server->Client: 2. Response register result
Client->Server: 3. Send application data
Server->Client: 4. Response acknowledge
Server-->Client: 3. Send application data
Client-->Server: 4. Response acknowledge]]></source><desc></desc><defs><marker viewBox="0 0 5 5" markerWidth="5" markerHeight="5" orient="auto" refX="5" refY="2.5" id="markerArrowBlock"><path d="M 0 0 L 5 2.5 L 0 5 z"></path></marker><marker viewBox="0 0 9.6 16" markerWidth="4" markerHeight="16" orient="auto" refX="9.6" refY="8" id="markerArrowOpen"><path d="M 9.6,8 1.92,16 0,13.7 5.76,8 0,2.286 1.92,0 9.6,8 z"></path></marker></defs><g class="title"></g><g class="actor"><path d="M10,20C35.4,22.9 70.0,17.1 81.4,20.0C83.1,52.7 79.7,47.3 81.4,63.0C39.5,65.9 27.1,60.1 10.0,63.0C11.7,30.3 8.3,52.7 10.0,20.0" stroke="#000000" fill="#ffffff" style="stroke-width: 2;"></path><text x="20" y="44" style="font-size: 16px; font-family: danielbd;"><tspan x="20">Client</tspan></text></g><g class="actor"><path d="M10,341C21.4,338.1 42.6,343.9 81.4,341.0C83.1,367.4 79.7,360.6 81.4,384.0C22.9,386.9 41.5,381.1 10.0,384.0C8.3,374.8 11.7,373.7 10.0,341.0" stroke="#000000" fill="#ffffff" style="stroke-width: 2;"></path><text x="20" y="365" style="font-size: 16px; font-family: danielbd;"><tspan x="20">Client</tspan></text></g><path d="M45.7,63.0C34.6,107.5 56.8,284.3 45.7,341.0" stroke="#000000" fill="none" style="stroke-width: 2;"></path><g class="actor"><path d="M292.3359375,20C310.9,23.1 351.0,16.9 369.6,20.0C371.3,40.9 367.9,41.4 369.6,63.0C304.7,59.9 320.6,66.1 292.3,63.0C294.1,56.1 290.6,30.8 292.3,20.0" stroke="#000000" fill="#ffffff" style="stroke-width: 2;"></path><text x="302.3671875" y="44" style="font-size: 16px; font-family: danielbd;"><tspan x="302.3359375">Server</tspan></text></g><g class="actor"><path d="M292.3359375,341C351.0,337.9 310.9,344.1 369.6,341.0C367.9,358.3 371.3,360.4 369.6,384.0C319.7,387.1 310.9,380.9 292.3,384.0C290.6,367.2 294.1,370.7 292.3,341.0" stroke="#000000" fill="#ffffff" style="stroke-width: 2;"></path><text x="302.3671875" y="365" style="font-size: 16px; font-family: danielbd;"><tspan x="302.3359375">Server</tspan></text></g><path d="M331.0,63.0C319.8,274.3 342.1,163.7 331.0,341.0" stroke="#000000" fill="none" style="stroke-width: 2;"></path><g class="signal"><text x="55.7109375" y="90.5" style="font-size: 16px; font-family: danielbd;"><tspan x="55.7109375">1. Send session register request</tspan></text><path d="M45.7,106.0C101.5,94.6 252.5,117.4 331.0,106.0" stroke="#000000" fill="none" style="stroke-width: 2; marker-end: url(&quot;#markerArrowBlock&quot;);"></path></g><g class="signal"><text x="72.4140625" y="133.5" style="font-size: 16px; font-family: danielbd;"><tspan x="72.4140625">2. Response register result</tspan></text><path d="M331.0,149.0C96.4,160.4 218.6,137.6 45.7,149.0" stroke="#000000" fill="none" style="stroke-width: 2; marker-end: url(&quot;#markerArrowBlock&quot;);"></path></g><g class="signal"><text x="87.03125" y="176.5" style="font-size: 16px; font-family: danielbd;"><tspan x="87.03125">3. Send application data</tspan></text><path d="M45.7,192.0C114.2,203.4 262.5,180.6 331.0,192.0" stroke="#000000" fill="none" style="stroke-width: 2; marker-end: url(&quot;#markerArrowBlock&quot;);"></path></g><g class="signal"><text x="84.234375" y="219.5" style="font-size: 16px; font-family: danielbd;"><tspan x="84.234375">4. Response acknowledge</tspan></text><path d="M331.0,235.0C285.3,246.4 222.3,223.6 45.7,235.0" stroke="#000000" fill="none" style="stroke-width: 2; marker-end: url(&quot;#markerArrowBlock&quot;);"></path></g><g class="signal"><text x="87.03125" y="262.5" style="font-size: 16px; font-family: danielbd;"><tspan x="87.03125">3. Send application data</tspan></text><path d="M331.0,278.0C187.6,289.4 155.9,266.6 45.7,278.0" stroke="#000000" fill="none" style="stroke-width: 2; stroke-dasharray: 6, 2; marker-end: url(&quot;#markerArrowBlock&quot;);"></path></g><g class="signal"><text x="84.234375" y="305.5" style="font-size: 16px; font-family: danielbd;"><tspan x="84.234375">4. Response acknowledge</tspan></text><path d="M45.7,321.0C285.3,309.6 122.7,332.4 331.0,321.0" stroke="#000000" fill="none" style="stroke-width: 2; stroke-dasharray: 6, 2; marker-end: url(&quot;#markerArrowBlock&quot;);"></path></g></svg>