<?xml version="1.0" encoding="utf-8" standalone="no"?><!DOCTYPE svg PUBLIC "-//W3C//DTD SVG 20010904//EN" "http://www.w3.org/TR/2001/REC-SVG-20010904/DTD/svg10.dtd"><svg xmlns="http://www.w3.org/2000/svg" width="580" height="514" xmlns:xlink="http://www.w3.org/1999/xlink"><source><![CDATA[Title:---Retransmission---
A-->B:....
B-->A:....
A-->B:....


A-->B: Send application data
Note right of B: B doesn't receive data,\n doesn't acknowlege 
A-->B: Retransmit data
Note right of A: A retransmit data to B
]]></source><desc>---Retransmission---</desc><defs><marker viewBox="0 0 5 5" markerWidth="5" markerHeight="5" orient="auto" refX="5" refY="2.5" id="markerArrowBlock"><path d="M 0 0 L 5 2.5 L 0 5 z"></path></marker><marker viewBox="0 0 9.6 16" markerWidth="4" markerHeight="16" orient="auto" refX="9.6" refY="8" id="markerArrowOpen"><path d="M 9.6,8 1.92,16 0,13.7 5.76,8 0,2.286 1.92,0 9.6,8 z"></path></marker></defs><g class="title"><path d="M10,10C83.9,16.7 108.8,3.3 177.6,10.0C176.3,15.2 178.9,35.5 177.6,42.5C119.4,49.2 67.1,35.8 10.0,42.5C11.3,34.7 8.7,36.1 10.0,10.0" stroke="#000000" fill="#ffffff" style="stroke-width: 2;"></path><text x="15" y="29" style="font-size: 16px; font-family: danielbd;"><tspan x="15">---Retransmission---</tspan></text></g><g class="actor"><path d="M10,52.5C26.9,53.8 19.1,51.2 43.1,52.5C41.4,70.6 44.8,77.1 43.1,95.0C17.9,93.7 33.1,96.3 10.0,95.0C11.7,62.7 8.3,59.3 10.0,52.5" stroke="#000000" fill="#ffffff" style="stroke-width: 2;"></path><text x="20" y="76.5" style="font-size: 16px; font-family: danielbd;"><tspan x="20">A</tspan></text></g><g class="actor"><path d="M10,451.6875C17.9,450.4 32.6,453.0 43.1,451.7C41.4,478.2 44.8,461.9 43.1,494.2C15.3,492.9 25.5,495.5 10.0,494.2C8.3,469.5 11.7,461.9 10.0,451.7" stroke="#000000" fill="#ffffff" style="stroke-width: 2;"></path><text x="20" y="475.6875" style="font-size: 16px; font-family: danielbd;"><tspan x="20">A</tspan></text></g><path d="M26.5,95.0C40.8,253.4 12.3,341.0 26.5,451.7" stroke="#000000" fill="none" style="stroke-width: 2;"></path><g class="actor"><path d="M267.453125,52.5C297.9,53.9 280.8,51.1 303.7,52.5C302.0,59.3 305.4,75.8 303.7,95.0C295.0,96.4 280.9,93.6 267.5,95.0C269.2,72.7 265.8,74.8 267.5,52.5" stroke="#000000" fill="#ffffff" style="stroke-width: 2;"></path><text x="277.453125" y="76.5" style="font-size: 16px; font-family: danielbd;"><tspan x="277.453125">B</tspan></text></g><g class="actor"><path d="M267.453125,451.6875C282.7,453.1 273.2,450.2 303.7,451.7C305.4,482.0 302.0,484.0 303.7,494.2C293.0,492.7 276.1,495.6 267.5,494.2C269.2,463.8 265.8,484.0 267.5,451.7" stroke="#000000" fill="#ffffff" style="stroke-width: 2;"></path><text x="277.453125" y="475.6875" style="font-size: 16px; font-family: danielbd;"><tspan x="277.453125">B</tspan></text></g><path d="M285.6,95.0C271.3,359.2 299.8,353.1 285.6,451.7" stroke="#000000" fill="none" style="stroke-width: 2;"></path><g class="signal"><text x="150.015625" y="122.75" style="font-size: 16px; font-family: danielbd;"><tspan x="150.015625">....</tspan></text><path d="M26.5,137.5C160.1,147.9 151.4,127.1 285.6,137.5" stroke="#000000" fill="none" style="stroke-width: 2; stroke-dasharray: 6, 2; marker-end: url(&quot;#markerArrowBlock&quot;);"></path></g><g class="signal"><text x="150.015625" y="165.25" style="font-size: 16px; font-family: danielbd;"><tspan x="150.015625">....</tspan></text><path d="M285.6,180.0C105.6,190.4 126.0,169.6 26.5,180.0" stroke="#000000" fill="none" style="stroke-width: 2; stroke-dasharray: 6, 2; marker-end: url(&quot;#markerArrowBlock&quot;);"></path></g><g class="signal"><text x="150.015625" y="207.75" style="font-size: 16px; font-family: danielbd;"><tspan x="150.015625">....</tspan></text><path d="M26.5,222.5C130.2,232.9 223.4,212.1 285.6,222.5" stroke="#000000" fill="none" style="stroke-width: 2; stroke-dasharray: 6, 2; marker-end: url(&quot;#markerArrowBlock&quot;);"></path></g><g class="signal"><text x="66.046875" y="250.25" style="font-size: 16px; font-family: danielbd;"><tspan x="66.015625">Send application data</tspan></text><path d="M26.5,265.0C68.0,254.6 116.8,275.4 285.6,265.0" stroke="#000000" fill="none" style="stroke-width: 2; stroke-dasharray: 6, 2; marker-end: url(&quot;#markerArrowBlock&quot;);"></path></g><g class="note"><path d="M305.5546875,285C367.6,276.7 369.6,293.3 512.4,285.0C510.3,293.3 514.5,317.0 512.4,336.7C462.7,328.4 355.2,345.0 305.6,336.7C303.5,309.6 307.6,328.4 305.6,285.0" stroke="#000000" fill="#ffffff" style="stroke-width: 2;"></path><text x="310.5546875" y="304" style="font-size: 16px; font-family: danielbd;"><tspan x="310.5546875">B doesn't receive data,</tspan><tspan dy="1.2em" x="310.5546875">doesn't acknowlege</tspan></text></g><g class="signal"><text x="85.8125" y="364.4375" style="font-size: 16px; font-family: danielbd;"><tspan x="85.8125">Retransmit data</tspan></text><path d="M26.5,379.2C189.4,368.8 244.1,389.5 285.6,379.2" stroke="#000000" fill="none" style="stroke-width: 2; stroke-dasharray: 6, 2; marker-end: url(&quot;#markerArrowBlock&quot;);"></path></g><g class="note"><path d="M46.5390625,399.1875C113.9,407.9 99.1,390.4 265.6,399.2C264.3,417.9 266.9,407.0 265.6,431.7C213.0,440.4 230.5,422.9 46.5,431.7C47.8,404.4 45.2,407.0 46.5,399.2" stroke="#000000" fill="#ffffff" style="stroke-width: 2;"></path><text x="51.5390625" y="418.1875" style="font-size: 16px; font-family: danielbd;"><tspan x="51.5390625">A retransmit data to B</tspan></text></g></svg>