<?xml version="1.0" encoding="utf-8" standalone="no"?><!DOCTYPE svg PUBLIC "-//W3C//DTD SVG 20010904//EN" "http://www.w3.org/TR/2001/REC-SVG-20010904/DTD/svg10.dtd"><svg xmlns="http://www.w3.org/2000/svg" width="580" height="514" xmlns:xlink="http://www.w3.org/1999/xlink"><source><![CDATA[Title:-------------Retransmission----------------
A-->B:....
B-->A:....
A-->B:....


A-->B: Send application data
Note right of B: B doesn't receive data,\n doesn't acknowlege 
A-->B: Retransmit data
Note right of A: A retransmit data to B
]]></source><desc>-------------Retransmission----------------</desc><defs><marker viewBox="0 0 5 5" markerWidth="5" markerHeight="5" orient="auto" refX="5" refY="2.5" id="markerArrowBlock"><path d="M 0 0 L 5 2.5 L 0 5 z"></path></marker><marker viewBox="0 0 9.6 16" markerWidth="4" markerHeight="16" orient="auto" refX="9.6" refY="8" id="markerArrowOpen"><path d="M 9.6,8 1.92,16 0,13.7 5.76,8 0,2.286 1.92,0 9.6,8 z"></path></marker></defs><g class="title"><path d="M10,10C216.1,-1.8 233.8,21.8 304.5,10.0C305.8,22.8 303.2,15.2 304.5,42.5C80.7,30.7 91.4,54.3 10.0,42.5C8.7,23.5 11.3,15.2 10.0,10.0" stroke="#000000" fill="#ffffff" style="stroke-width: 2;"></path><text x="15" y="29" style="font-size: 16px; font-family: danielbd;"><tspan x="15">-------------Retransmission----------------</tspan></text></g><g class="actor"><path d="M10,52.5C35.1,51.2 35.5,53.8 43.1,52.5C41.4,68.2 44.8,72.7 43.1,95.0C15.3,96.3 34.9,93.7 10.0,95.0C11.7,71.3 8.3,81.0 10.0,52.5" stroke="#000000" fill="#ffffff" style="stroke-width: 2;"></path><text x="20" y="76.5" style="font-size: 16px; font-family: danielbd;"><tspan x="20">A</tspan></text></g><g class="actor"><path d="M10,451.6875C15.3,453.0 18.0,450.4 43.1,451.7C41.4,461.9 44.8,466.4 43.1,494.2C18.0,495.5 20.5,492.9 10.0,494.2C11.7,486.1 8.3,458.5 10.0,451.7" stroke="#000000" fill="#ffffff" style="stroke-width: 2;"></path><text x="20" y="475.6875" style="font-size: 16px; font-family: danielbd;"><tspan x="20">A</tspan></text></g><path d="M26.5,95.0C12.3,328.8 40.8,180.6 26.5,451.7" stroke="#000000" fill="none" style="stroke-width: 2;"></path><g class="actor"><path d="M267.453125,52.5C277.6,53.9 289.9,51.1 303.7,52.5C305.4,65.0 302.0,80.7 303.7,95.0C284.8,93.6 279.5,96.4 267.5,95.0C265.8,59.3 269.2,88.2 267.5,52.5" stroke="#000000" fill="#ffffff" style="stroke-width: 2;"></path><text x="277.453125" y="76.5" style="font-size: 16px; font-family: danielbd;"><tspan x="277.453125">B</tspan></text></g><g class="actor"><path d="M267.453125,451.6875C295.0,450.2 290.8,453.1 303.7,451.7C302.0,479.1 305.4,484.0 303.7,494.2C295.0,495.6 276.1,492.7 267.5,494.2C269.2,478.8 265.8,461.9 267.5,451.7" stroke="#000000" fill="#ffffff" style="stroke-width: 2;"></path><text x="277.453125" y="475.6875" style="font-size: 16px; font-family: danielbd;"><tspan x="277.453125">B</tspan></text></g><path d="M285.6,95.0C299.8,152.1 271.3,245.0 285.6,451.7" stroke="#000000" fill="none" style="stroke-width: 2;"></path><g class="signal"><text x="150.015625" y="122.75" style="font-size: 16px; font-family: danielbd;"><tspan x="150.015625">....</tspan></text><path d="M26.5,137.5C74.4,127.1 244.1,147.9 285.6,137.5" stroke="#000000" fill="none" style="stroke-width: 2; stroke-dasharray: 6, 2; marker-end: url(&quot;#markerArrowBlock&quot;);"></path></g><g class="signal"><text x="150.015625" y="165.25" style="font-size: 16px; font-family: danielbd;"><tspan x="150.015625">....</tspan></text><path d="M285.6,180.0C217.3,169.6 68.0,190.4 26.5,180.0" stroke="#000000" fill="none" style="stroke-width: 2; stroke-dasharray: 6, 2; marker-end: url(&quot;#markerArrowBlock&quot;);"></path></g><g class="signal"><text x="150.015625" y="207.75" style="font-size: 16px; font-family: danielbd;"><tspan x="150.015625">....</tspan></text><path d="M26.5,222.5C233.8,212.1 68.0,232.9 285.6,222.5" stroke="#000000" fill="none" style="stroke-width: 2; stroke-dasharray: 6, 2; marker-end: url(&quot;#markerArrowBlock&quot;);"></path></g><g class="signal"><text x="66.046875" y="250.25" style="font-size: 16px; font-family: danielbd;"><tspan x="66.015625">Send application data</tspan></text><path d="M26.5,265.0C124.0,254.6 244.1,275.4 285.6,265.0" stroke="#000000" fill="none" style="stroke-width: 2; stroke-dasharray: 6, 2; marker-end: url(&quot;#markerArrowBlock&quot;);"></path></g><g class="note"><path d="M305.5546875,285C462.7,293.3 456.5,276.7 512.4,285.0C514.5,324.3 510.3,297.4 512.4,336.7C462.7,345.0 407.5,328.4 305.6,336.7C307.6,308.6 303.5,309.9 305.6,285.0" stroke="#000000" fill="#ffffff" style="stroke-width: 2;"></path><text x="310.5546875" y="304" style="font-size: 16px; font-family: danielbd;"><tspan x="310.5546875">B doesn't receive data,</tspan><tspan dy="1.2em" x="310.5546875">doesn't acknowlege</tspan></text></g><g class="signal"><text x="85.8125" y="364.4375" style="font-size: 16px; font-family: danielbd;"><tspan x="85.8125">Retransmit data</tspan></text><path d="M26.5,379.2C68.0,368.8 88.7,389.5 285.6,379.2" stroke="#000000" fill="none" style="stroke-width: 2; stroke-dasharray: 6, 2; marker-end: url(&quot;#markerArrowBlock&quot;);"></path></g><g class="note"><path d="M46.5390625,399.1875C161.1,390.4 96.9,407.9 265.6,399.2C266.9,420.0 264.3,415.0 265.6,431.7C113.3,440.4 90.4,422.9 46.5,431.7C45.2,421.3 47.8,415.9 46.5,399.2" stroke="#000000" fill="#ffffff" style="stroke-width: 2;"></path><text x="51.5390625" y="418.1875" style="font-size: 16px; font-family: danielbd;"><tspan x="51.5390625">A retransmit data to B</tspan></text></g></svg>