<?xml version="1.0" encoding="utf-8" standalone="no"?><!DOCTYPE svg PUBLIC "-//W3C//DTD SVG 20010904//EN" "http://www.w3.org/TR/2001/REC-SVG-20010904/DTD/svg10.dtd"><svg xmlns="http://www.w3.org/2000/svg" width="580" height="514" xmlns:xlink="http://www.w3.org/1999/xlink"><source><![CDATA[Title:-----Retransmission-----
A-->B:....
B-->A:....
A-->B:....


A-->B: Send application data
Note right of B: B doesn't receive data,\n doesn't acknowlege 
A-->B: Retransmit data
Note right of A: A retransmit data to B
]]></source><desc>-----Retransmission-----</desc><defs><marker viewBox="0 0 5 5" markerWidth="5" markerHeight="5" orient="auto" refX="5" refY="2.5" id="markerArrowBlock"><path d="M 0 0 L 5 2.5 L 0 5 z"></path></marker><marker viewBox="0 0 9.6 16" markerWidth="4" markerHeight="16" orient="auto" refX="9.6" refY="8" id="markerArrowOpen"><path d="M 9.6,8 1.92,16 0,13.7 5.76,8 0,2.286 1.92,0 9.6,8 z"></path></marker></defs><g class="title"><path d="M10,10C154.2,17.6 55.5,2.4 199.7,10.0C201.0,37.3 198.4,15.2 199.7,42.5C169.3,34.9 65.9,50.1 10.0,42.5C8.7,25.7 11.3,37.3 10.0,10.0" stroke="#000000" fill="#ffffff" style="stroke-width: 2;"></path><text x="15" y="29" style="font-size: 16px; font-family: danielbd;"><tspan x="15">-----Retransmission-----</tspan></text></g><g class="actor"><path d="M10,52.5C26.1,53.8 34.4,51.2 43.1,52.5C41.4,71.3 44.8,64.8 43.1,95.0C17.9,96.3 15.3,93.7 10.0,95.0C8.3,67.2 11.7,76.7 10.0,52.5" stroke="#000000" fill="#ffffff" style="stroke-width: 2;"></path><text x="20" y="76.5" style="font-size: 16px; font-family: danielbd;"><tspan x="20">A</tspan></text></g><g class="actor"><path d="M10,451.6875C35.0,450.4 19.6,453.0 43.1,451.7C44.8,462.2 41.4,466.3 43.1,494.2C20.0,492.9 35.1,495.5 10.0,494.2C8.3,483.1 11.7,468.3 10.0,451.7" stroke="#000000" fill="#ffffff" style="stroke-width: 2;"></path><text x="20" y="475.6875" style="font-size: 16px; font-family: danielbd;"><tspan x="20">A</tspan></text></g><path d="M26.5,95.0C40.8,377.5 12.3,152.1 26.5,451.7" stroke="#000000" fill="none" style="stroke-width: 2;"></path><g class="actor"><path d="M267.453125,52.5C292.5,53.9 273.2,51.1 303.7,52.5C302.0,73.5 305.4,65.9 303.7,95.0C283.1,93.6 276.7,96.4 267.5,95.0C269.2,88.2 265.8,59.3 267.5,52.5" stroke="#000000" fill="#ffffff" style="stroke-width: 2;"></path><text x="277.453125" y="76.5" style="font-size: 16px; font-family: danielbd;"><tspan x="277.453125">B</tspan></text></g><g class="actor"><path d="M267.453125,451.6875C284.8,450.2 288.0,453.1 303.7,451.7C305.4,484.0 302.0,487.4 303.7,494.2C277.0,495.6 284.5,492.7 267.5,494.2C269.2,478.5 265.8,462.8 267.5,451.7" stroke="#000000" fill="#ffffff" style="stroke-width: 2;"></path><text x="277.453125" y="475.6875" style="font-size: 16px; font-family: danielbd;"><tspan x="277.453125">B</tspan></text></g><path d="M285.6,95.0C271.3,257.6 299.8,366.1 285.6,451.7" stroke="#000000" fill="none" style="stroke-width: 2;"></path><g class="signal"><text x="150.015625" y="122.75" style="font-size: 16px; font-family: danielbd;"><tspan x="150.015625">....</tspan></text><path d="M26.5,137.5C88.7,127.1 82.1,147.9 285.6,137.5" stroke="#000000" fill="none" style="stroke-width: 2; stroke-dasharray: 6, 2; marker-end: url(&quot;#markerArrowBlock&quot;);"></path></g><g class="signal"><text x="150.015625" y="165.25" style="font-size: 16px; font-family: danielbd;"><tspan x="150.015625">....</tspan></text><path d="M285.6,180.0C88.7,190.4 204.7,169.6 26.5,180.0" stroke="#000000" fill="none" style="stroke-width: 2; stroke-dasharray: 6, 2; marker-end: url(&quot;#markerArrowBlock&quot;);"></path></g><g class="signal"><text x="150.015625" y="207.75" style="font-size: 16px; font-family: danielbd;"><tspan x="150.015625">....</tspan></text><path d="M26.5,222.5C153.9,212.1 223.4,232.9 285.6,222.5" stroke="#000000" fill="none" style="stroke-width: 2; stroke-dasharray: 6, 2; marker-end: url(&quot;#markerArrowBlock&quot;);"></path></g><g class="signal"><text x="66.046875" y="250.25" style="font-size: 16px; font-family: danielbd;"><tspan x="66.015625">Send application data</tspan></text><path d="M26.5,265.0C223.4,254.6 234.6,275.4 285.6,265.0" stroke="#000000" fill="none" style="stroke-width: 2; stroke-dasharray: 6, 2; marker-end: url(&quot;#markerArrowBlock&quot;);"></path></g><g class="note"><path d="M305.5546875,285C437.4,276.7 441.1,293.3 512.4,285.0C514.5,324.3 510.3,328.4 512.4,336.7C479.3,345.0 425.8,328.4 305.6,336.7C307.6,297.4 303.5,312.5 305.6,285.0" stroke="#000000" fill="#ffffff" style="stroke-width: 2;"></path><text x="310.5546875" y="304" style="font-size: 16px; font-family: danielbd;"><tspan x="310.5546875">B doesn't receive data,</tspan><tspan dy="1.2em" x="310.5546875">doesn't acknowlege</tspan></text></g><g class="signal"><text x="85.8125" y="364.4375" style="font-size: 16px; font-family: danielbd;"><tspan x="85.8125">Retransmit data</tspan></text><path d="M26.5,379.2C158.1,389.5 174.1,368.8 285.6,379.2" stroke="#000000" fill="none" style="stroke-width: 2; stroke-dasharray: 6, 2; marker-end: url(&quot;#markerArrowBlock&quot;);"></path></g><g class="note"><path d="M46.5390625,399.1875C115.8,407.9 91.6,390.4 265.6,399.2C264.3,426.5 266.9,419.1 265.6,431.7C188.1,422.9 99.1,440.4 46.5,431.7C45.2,423.9 47.8,410.2 46.5,399.2" stroke="#000000" fill="#ffffff" style="stroke-width: 2;"></path><text x="51.5390625" y="418.1875" style="font-size: 16px; font-family: danielbd;"><tspan x="51.5390625">A retransmit data to B</tspan></text></g></svg>