<?xml version="1.0" encoding="utf-8" standalone="no"?><!DOCTYPE svg PUBLIC "-//W3C//DTD SVG 20010904//EN" "http://www.w3.org/TR/2001/REC-SVG-20010904/DTD/svg10.dtd"><svg xmlns="http://www.w3.org/2000/svg" width="580" height="514" xmlns:xlink="http://www.w3.org/1999/xlink"><source><![CDATA[Title:-------Retransmission--------
A-->B:....
B-->A:....
A-->B:....


A-->B: Send application data
Note right of B: B doesn't receive data,\n doesn't acknowlege 
A-->B: Retransmit data
Note right of A: A retransmit data to B
]]></source><desc>-------Retransmission--------</desc><defs><marker viewBox="0 0 5 5" markerWidth="5" markerHeight="5" orient="auto" refX="5" refY="2.5" id="markerArrowBlock"><path d="M 0 0 L 5 2.5 L 0 5 z"></path></marker><marker viewBox="0 0 9.6 16" markerWidth="4" markerHeight="16" orient="auto" refX="9.6" refY="8" id="markerArrowOpen"><path d="M 9.6,8 1.92,16 0,13.7 5.76,8 0,2.286 1.92,0 9.6,8 z"></path></marker></defs><g class="title"><path d="M10,10C66.3,18.7 160.9,1.3 227.3,10.0C226.0,37.3 228.6,32.0 227.3,42.5C44.8,51.2 62.1,33.8 10.0,42.5C8.7,37.3 11.3,34.7 10.0,10.0" stroke="#000000" fill="#ffffff" style="stroke-width: 2;"></path><text x="15" y="29" style="font-size: 16px; font-family: danielbd;"><tspan x="15">-------Retransmission--------</tspan></text></g><g class="actor"><path d="M10,52.5C34.7,53.8 15.3,51.2 43.1,52.5C44.8,68.0 41.4,84.8 43.1,95.0C18.3,96.3 17.9,93.7 10.0,95.0C8.3,66.1 11.7,75.5 10.0,52.5" stroke="#000000" fill="#ffffff" style="stroke-width: 2;"></path><text x="20" y="76.5" style="font-size: 16px; font-family: danielbd;"><tspan x="20">A</tspan></text></g><g class="actor"><path d="M10,451.6875C26.5,450.4 19.2,453.0 43.1,451.7C41.4,484.0 44.8,474.0 43.1,494.2C25.8,495.5 37.8,492.9 10.0,494.2C11.7,461.9 8.3,469.1 10.0,451.7" stroke="#000000" fill="#ffffff" style="stroke-width: 2;"></path><text x="20" y="475.6875" style="font-size: 16px; font-family: danielbd;"><tspan x="20">A</tspan></text></g><path d="M26.5,95.0C40.8,234.5 12.3,394.6 26.5,451.7" stroke="#000000" fill="none" style="stroke-width: 2;"></path><g class="actor"><path d="M267.453125,52.5C297.9,53.9 281.3,51.1 303.7,52.5C305.4,86.0 302.0,62.5 303.7,95.0C276.1,93.6 273.2,96.4 267.5,95.0C269.2,72.0 265.8,88.2 267.5,52.5" stroke="#000000" fill="#ffffff" style="stroke-width: 2;"></path><text x="277.453125" y="76.5" style="font-size: 16px; font-family: danielbd;"><tspan x="277.453125">B</tspan></text></g><g class="actor"><path d="M267.453125,451.6875C276.1,450.2 283.5,453.1 303.7,451.7C305.4,458.5 302.0,471.3 303.7,494.2C295.0,495.6 290.4,492.7 267.5,494.2C269.2,458.5 265.8,485.1 267.5,451.7" stroke="#000000" fill="#ffffff" style="stroke-width: 2;"></path><text x="277.453125" y="475.6875" style="font-size: 16px; font-family: danielbd;"><tspan x="277.453125">B</tspan></text></g><path d="M285.6,95.0C271.3,394.6 299.8,207.7 285.6,451.7" stroke="#000000" fill="none" style="stroke-width: 2;"></path><g class="signal"><text x="150.015625" y="122.75" style="font-size: 16px; font-family: danielbd;"><tspan x="150.015625">....</tspan></text><path d="M26.5,137.5C203.7,147.9 93.3,127.1 285.6,137.5" stroke="#000000" fill="none" style="stroke-width: 2; stroke-dasharray: 6, 2; marker-end: url(&quot;#markerArrowBlock&quot;);"></path></g><g class="signal"><text x="150.015625" y="165.25" style="font-size: 16px; font-family: danielbd;"><tspan x="150.015625">....</tspan></text><path d="M285.6,180.0C114.2,169.6 88.7,190.4 26.5,180.0" stroke="#000000" fill="none" style="stroke-width: 2; stroke-dasharray: 6, 2; marker-end: url(&quot;#markerArrowBlock&quot;);"></path></g><g class="signal"><text x="150.015625" y="207.75" style="font-size: 16px; font-family: danielbd;"><tspan x="150.015625">....</tspan></text><path d="M26.5,222.5C68.0,212.1 104.7,232.9 285.6,222.5" stroke="#000000" fill="none" style="stroke-width: 2; stroke-dasharray: 6, 2; marker-end: url(&quot;#markerArrowBlock&quot;);"></path></g><g class="signal"><text x="66.046875" y="250.25" style="font-size: 16px; font-family: danielbd;"><tspan x="66.015625">Send application data</tspan></text><path d="M26.5,265.0C68.0,275.4 229.0,254.6 285.6,265.0" stroke="#000000" fill="none" style="stroke-width: 2; stroke-dasharray: 6, 2; marker-end: url(&quot;#markerArrowBlock&quot;);"></path></g><g class="note"><path d="M305.5546875,285C451.5,293.3 451.0,276.7 512.4,285.0C510.3,299.5 514.5,324.3 512.4,336.7C338.6,345.0 479.3,328.4 305.6,336.7C307.6,300.9 303.5,295.6 305.6,285.0" stroke="#000000" fill="#ffffff" style="stroke-width: 2;"></path><text x="310.5546875" y="304" style="font-size: 16px; font-family: danielbd;"><tspan x="310.5546875">B doesn't receive data,</tspan><tspan dy="1.2em" x="310.5546875">doesn't acknowlege</tspan></text></g><g class="signal"><text x="85.8125" y="364.4375" style="font-size: 16px; font-family: danielbd;"><tspan x="85.8125">Retransmit data</tspan></text><path d="M26.5,379.2C170.3,389.5 117.1,368.8 285.6,379.2" stroke="#000000" fill="none" style="stroke-width: 2; stroke-dasharray: 6, 2; marker-end: url(&quot;#markerArrowBlock&quot;);"></path></g><g class="note"><path d="M46.5390625,399.1875C141.5,407.9 99.6,390.4 265.6,399.2C264.3,420.9 266.9,419.3 265.6,431.7C213.0,440.4 99.1,422.9 46.5,431.7C45.2,411.6 47.8,407.0 46.5,399.2" stroke="#000000" fill="#ffffff" style="stroke-width: 2;"></path><text x="51.5390625" y="418.1875" style="font-size: 16px; font-family: danielbd;"><tspan x="51.5390625">A retransmit data to B</tspan></text></g></svg>